<?xml version="1.0" encoding="UTF-8"?>
<svg xmlns="http://www.w3.org/2000/svg" xmlns:xlink="http://www.w3.org/1999/xlink" width="50pt" height="50pt" viewBox="0 0 50 50" version="1.1">
<g id="surface1">
<path style=" stroke:none;fill-rule:nonzero;fill:rgb(0%,0%,0%);fill-opacity:1;" d="M 36.230469 0 C 28.683594 0 22.542969 6.140625 22.542969 13.6875 C 22.542969 21.234375 28.683594 27.375 36.230469 27.375 C 43.78125 27.375 49.921875 21.234375 49.921875 13.6875 C 49.921875 6.140625 43.78125 0 36.230469 0 Z M 38.648438 4.832031 L 38.648438 6.441406 L 33.816406 6.441406 L 33.816406 4.832031 Z M 33.816406 8.050781 L 38.648438 8.050781 L 38.648438 8.855469 C 38.648438 10.1875 37.5625 11.273438 36.230469 11.273438 C 34.902344 11.273438 33.816406 10.1875 33.816406 8.855469 Z M 36.230469 12.882812 C 36.507812 12.882812 36.777344 12.855469 37.039062 12.800781 L 37.039062 14.492188 L 35.425781 14.492188 L 35.425781 12.800781 C 35.6875 12.855469 35.957031 12.882812 36.230469 12.882812 Z M 38.714844 16.101562 C 40.625 16.101562 42.285156 17.464844 42.660156 19.339844 L 43.300781 22.542969 L 29.164062 22.542969 L 29.804688 19.339844 C 30.179688 17.464844 31.839844 16.101562 33.75 16.101562 Z M 30.234375 24.15625 L 42.234375 24.15625 C 40.460938 25.171875 38.417969 25.765625 36.234375 25.765625 C 34.046875 25.765625 32.003906 25.171875 30.234375 24.15625 Z M 44.859375 22.125 L 44.238281 19.023438 C 43.714844 16.398438 41.390625 14.492188 38.714844 14.492188 L 38.648438 14.492188 L 38.648438 12.078125 L 38.625 12.078125 C 39.609375 11.34375 40.257812 10.179688 40.257812 8.855469 L 40.257812 4.832031 L 41.867188 4.832031 L 41.867188 3.21875 L 30.597656 3.21875 L 30.597656 4.832031 L 32.207031 4.832031 L 32.207031 8.855469 C 32.207031 10.179688 32.855469 11.34375 33.839844 12.078125 L 33.816406 12.078125 L 33.816406 14.492188 L 33.75 14.492188 C 31.074219 14.492188 28.75 16.398438 28.226562 19.023438 L 27.605469 22.125 C 25.472656 19.945312 24.15625 16.96875 24.15625 13.6875 C 24.15625 7.027344 29.574219 1.609375 36.230469 1.609375 C 42.890625 1.609375 48.308594 7.027344 48.308594 13.6875 C 48.308594 16.96875 46.992188 19.945312 44.859375 22.125 Z M 44.859375 22.125 "/>
<path style=" stroke:none;fill-rule:nonzero;fill:rgb(0%,0%,0%);fill-opacity:1;" d="M 13.6875 22.542969 C 6.140625 22.542969 0 28.683594 0 36.230469 C 0 43.78125 6.140625 49.921875 13.6875 49.921875 C 21.234375 49.921875 27.375 43.78125 27.375 36.230469 C 27.375 28.683594 21.234375 22.542969 13.6875 22.542969 Z M 13.6875 33.816406 C 12.355469 33.816406 11.273438 32.734375 11.273438 31.402344 L 11.273438 29.792969 C 11.273438 28.460938 12.355469 27.375 13.6875 27.375 C 15.019531 27.375 16.101562 28.460938 16.101562 29.792969 L 16.101562 31.402344 C 16.101562 32.734375 15.019531 33.816406 13.6875 33.816406 Z M 13.6875 35.425781 C 13.964844 35.425781 14.234375 35.398438 14.492188 35.347656 L 14.492188 37.039062 L 12.882812 37.039062 L 12.882812 35.347656 C 13.144531 35.398438 13.414062 35.425781 13.6875 35.425781 Z M 16.167969 38.648438 C 18.082031 38.648438 19.742188 40.007812 20.117188 41.882812 L 20.757812 45.089844 L 6.617188 45.089844 L 7.257812 41.882812 C 7.632812 40.007812 9.292969 38.648438 11.207031 38.648438 Z M 7.6875 46.699219 L 19.6875 46.699219 C 17.917969 47.71875 15.871094 48.308594 13.6875 48.308594 C 11.503906 48.308594 9.457031 47.71875 7.6875 46.699219 Z M 22.316406 44.667969 L 21.695312 41.566406 C 21.171875 38.941406 18.84375 37.039062 16.167969 37.039062 L 16.101562 37.039062 L 16.101562 34.621094 L 16.078125 34.621094 C 17.066406 33.886719 17.714844 32.722656 17.714844 31.402344 L 17.714844 29.792969 C 17.714844 27.570312 15.90625 25.765625 13.6875 25.765625 C 11.46875 25.765625 9.660156 27.570312 9.660156 29.792969 L 9.660156 31.402344 C 9.660156 32.722656 10.3125 33.886719 11.296875 34.621094 L 11.273438 34.621094 L 11.273438 37.039062 L 11.207031 37.039062 C 8.53125 37.039062 6.207031 38.941406 5.679688 41.566406 L 5.0625 44.667969 C 2.929688 42.488281 1.609375 39.511719 1.609375 36.230469 C 1.609375 29.574219 7.027344 24.15625 13.6875 24.15625 C 20.347656 24.15625 25.765625 29.574219 25.765625 36.230469 C 25.765625 39.511719 24.445312 42.488281 22.316406 44.667969 Z M 22.316406 44.667969 "/>
<path style=" stroke:none;fill-rule:nonzero;fill:rgb(0%,0%,0%);fill-opacity:1;" d="M 42.671875 28.984375 L 39.453125 28.984375 C 39.007812 28.984375 38.648438 29.34375 38.648438 29.792969 L 38.648438 31.402344 C 38.648438 33.789062 36.902344 35.78125 34.621094 36.164062 L 34.621094 34.621094 C 34.621094 34.296875 34.425781 34.003906 34.125 33.878906 C 33.824219 33.75 33.476562 33.824219 33.246094 34.054688 L 29.222656 38.078125 C 28.90625 38.394531 28.90625 38.902344 29.222656 39.21875 L 33.246094 43.242188 C 33.402344 43.398438 33.609375 43.480469 33.816406 43.480469 C 33.921875 43.480469 34.023438 43.460938 34.125 43.417969 C 34.425781 43.292969 34.621094 43 34.621094 42.671875 L 34.621094 41.03125 C 39.574219 40.621094 43.480469 36.457031 43.480469 31.402344 L 43.480469 29.792969 C 43.480469 29.34375 43.117188 28.984375 42.671875 28.984375 Z M 41.867188 31.402344 C 41.867188 35.839844 38.257812 39.453125 33.816406 39.453125 C 33.371094 39.453125 33.011719 39.8125 33.011719 40.257812 L 33.011719 40.730469 L 30.929688 38.648438 L 33.011719 36.566406 L 33.011719 37.039062 C 33.011719 37.484375 33.371094 37.84375 33.816406 37.84375 C 37.367188 37.84375 40.257812 34.953125 40.257812 31.402344 L 40.257812 30.597656 L 41.867188 30.597656 Z M 41.867188 31.402344 "/>
<path style=" stroke:none;fill-rule:nonzero;fill:rgb(0%,0%,0%);fill-opacity:1;" d="M 7.246094 20.933594 L 10.46875 20.933594 C 10.910156 20.933594 11.273438 20.574219 11.273438 20.128906 L 11.273438 18.519531 C 11.273438 16.128906 13.015625 14.140625 15.296875 13.753906 L 15.296875 15.296875 C 15.296875 15.625 15.496094 15.917969 15.796875 16.042969 C 16.09375 16.167969 16.441406 16.097656 16.671875 15.867188 L 20.699219 11.839844 C 21.011719 11.527344 21.011719 11.019531 20.699219 10.703125 L 16.671875 6.675781 C 16.441406 6.445312 16.09375 6.375 15.796875 6.503906 C 15.496094 6.625 15.296875 6.921875 15.296875 7.246094 L 15.296875 8.890625 C 10.347656 9.300781 6.441406 13.460938 6.441406 18.519531 L 6.441406 20.128906 C 6.441406 20.574219 6.800781 20.933594 7.246094 20.933594 Z M 8.050781 18.519531 C 8.050781 14.078125 11.664062 10.46875 16.101562 10.46875 C 16.546875 10.46875 16.910156 10.105469 16.910156 9.660156 L 16.910156 9.191406 L 18.992188 11.273438 L 16.910156 13.355469 L 16.910156 12.882812 C 16.910156 12.4375 16.546875 12.078125 16.101562 12.078125 C 12.550781 12.078125 9.660156 14.96875 9.660156 18.519531 L 9.660156 19.324219 L 8.050781 19.324219 Z M 8.050781 18.519531 "/>
</g>
</svg>
