<?xml version="1.0" encoding="UTF-8"?>
<svg xmlns="http://www.w3.org/2000/svg" xmlns:xlink="http://www.w3.org/1999/xlink" width="50pt" height="50pt" viewBox="0 0 50 50" version="1.1">
<g id="surface1">
<path style=" stroke:none;fill-rule:nonzero;fill:rgb(0%,0%,0%);fill-opacity:1;" d="M 32.8125 15.707031 C 32.695312 15.351562 32.390625 15.09375 32.023438 15.042969 L 27.773438 14.425781 L 25.875 10.578125 C 25.710938 10.242188 25.371094 10.03125 25 10.03125 C 24.625 10.03125 24.285156 10.242188 24.121094 10.578125 L 22.222656 14.425781 L 17.976562 15.046875 C 17.609375 15.097656 17.300781 15.355469 17.1875 15.710938 C 17.074219 16.0625 17.167969 16.453125 17.433594 16.710938 L 20.511719 19.707031 L 19.785156 23.9375 C 19.722656 24.304688 19.875 24.675781 20.175781 24.894531 C 20.34375 25.015625 20.546875 25.078125 20.746094 25.078125 C 20.902344 25.078125 21.058594 25.042969 21.203125 24.96875 L 25 22.96875 L 28.800781 24.964844 C 29.132812 25.136719 29.53125 25.109375 29.832031 24.890625 C 30.132812 24.671875 30.28125 24.300781 30.21875 23.933594 L 29.492188 19.703125 L 32.566406 16.707031 C 32.832031 16.449219 32.925781 16.058594 32.8125 15.707031 Z M 27.761719 18.664062 C 27.53125 18.890625 27.425781 19.210938 27.480469 19.527344 L 27.957031 22.316406 L 25.457031 21 C 25.171875 20.851562 24.832031 20.851562 24.546875 21 L 22.042969 22.316406 L 22.523438 19.53125 C 22.574219 19.214844 22.46875 18.890625 22.242188 18.664062 L 20.214844 16.691406 L 23.011719 16.285156 C 23.332031 16.238281 23.605469 16.039062 23.75 15.75 L 25 13.214844 L 26.25 15.75 C 26.394531 16.039062 26.667969 16.238281 26.988281 16.285156 L 29.785156 16.691406 Z M 27.761719 18.664062 "/>
<path style=" stroke:none;fill-rule:nonzero;fill:rgb(0%,0%,0%);fill-opacity:1;" d="M 46.949219 42.90625 L 38.875 28.867188 C 41.3125 25.824219 42.773438 21.964844 42.773438 17.773438 C 42.773438 7.972656 34.800781 0 25 0 C 15.199219 0 7.226562 7.972656 7.226562 17.773438 C 7.226562 21.964844 8.6875 25.824219 11.125 28.867188 L 3.050781 42.90625 C 2.867188 43.230469 2.882812 43.628906 3.089844 43.9375 C 3.296875 44.246094 3.660156 44.410156 4.027344 44.363281 L 10.328125 43.515625 L 12.746094 49.394531 C 12.886719 49.738281 13.214844 49.972656 13.585938 49.996094 C 13.605469 50 13.628906 50 13.648438 50 C 13.996094 50 14.320312 49.816406 14.496094 49.511719 L 22.644531 35.398438 C 22.644531 35.394531 22.648438 35.394531 22.648438 35.390625 C 23.417969 35.492188 24.203125 35.546875 25 35.546875 C 25.796875 35.546875 26.582031 35.492188 27.351562 35.390625 C 27.355469 35.394531 27.355469 35.394531 27.355469 35.398438 L 35.503906 49.511719 C 35.679688 49.816406 36.003906 50 36.351562 50 C 36.371094 50 36.394531 50 36.414062 49.996094 C 36.785156 49.972656 37.113281 49.738281 37.253906 49.394531 L 39.671875 43.515625 L 45.972656 44.363281 C 46.339844 44.410156 46.703125 44.246094 46.910156 43.9375 C 47.117188 43.628906 47.132812 43.230469 46.949219 42.90625 Z M 13.796875 46.816406 L 12.039062 42.535156 L 13.617188 39.957031 C 13.898438 39.5 13.753906 38.898438 13.292969 38.613281 C 12.835938 38.332031 12.234375 38.476562 11.953125 38.9375 L 10.355469 41.542969 L 5.734375 42.164062 L 12.5 30.394531 C 14.714844 32.589844 17.503906 34.207031 20.617188 35 Z M 25 33.59375 C 16.277344 33.59375 9.179688 26.496094 9.179688 17.773438 C 9.179688 9.050781 16.277344 1.953125 25 1.953125 C 33.722656 1.953125 40.820312 9.050781 40.820312 17.773438 C 40.820312 26.496094 33.722656 33.59375 25 33.59375 Z M 39.644531 41.542969 L 38.046875 38.9375 C 37.765625 38.476562 37.164062 38.332031 36.707031 38.613281 C 36.246094 38.898438 36.101562 39.5 36.382812 39.957031 L 37.960938 42.535156 L 36.203125 46.816406 L 29.382812 35 C 32.496094 34.207031 35.285156 32.589844 37.5 30.394531 L 44.265625 42.164062 Z M 39.644531 41.542969 "/>
<path style=" stroke:none;fill-rule:nonzero;fill:rgb(0%,0%,0%);fill-opacity:1;" d="M 25 5.078125 C 22.820312 5.078125 20.671875 5.640625 18.78125 6.703125 C 18.3125 6.96875 18.144531 7.5625 18.410156 8.03125 C 18.675781 8.503906 19.269531 8.667969 19.738281 8.40625 C 21.335938 7.507812 23.15625 7.03125 25 7.03125 C 30.921875 7.03125 35.742188 11.851562 35.742188 17.773438 C 35.742188 19.390625 35.390625 20.949219 34.699219 22.394531 C 34.46875 22.882812 34.671875 23.464844 35.160156 23.699219 C 35.296875 23.761719 35.4375 23.792969 35.582031 23.792969 C 35.945312 23.792969 36.292969 23.589844 36.460938 23.238281 C 37.28125 21.523438 37.695312 19.6875 37.695312 17.773438 C 37.695312 10.773438 32 5.078125 25 5.078125 Z M 25 5.078125 "/>
<path style=" stroke:none;fill-rule:nonzero;fill:rgb(0%,0%,0%);fill-opacity:1;" d="M 34.085938 25.238281 C 33.699219 24.859375 33.082031 24.871094 32.707031 25.257812 L 32.683594 25.28125 C 32.308594 25.664062 32.316406 26.285156 32.699219 26.660156 C 32.890625 26.847656 33.136719 26.9375 33.382812 26.9375 C 33.636719 26.9375 33.890625 26.839844 34.082031 26.644531 L 34.109375 26.617188 C 34.484375 26.230469 34.472656 25.613281 34.085938 25.238281 Z M 34.085938 25.238281 "/>
<path style=" stroke:none;fill-rule:nonzero;fill:rgb(0%,0%,0%);fill-opacity:1;" d="M 31.503906 27.574219 C 31.242188 27.101562 30.648438 26.929688 30.175781 27.1875 C 28.601562 28.058594 26.8125 28.515625 25 28.515625 C 19.078125 28.515625 14.257812 23.695312 14.257812 17.773438 C 14.257812 16.222656 14.582031 14.726562 15.21875 13.324219 C 15.441406 12.835938 15.226562 12.253906 14.734375 12.03125 C 14.242188 11.808594 13.664062 12.023438 13.441406 12.515625 C 12.6875 14.171875 12.304688 15.941406 12.304688 17.773438 C 12.304688 24.773438 18 30.46875 25 30.46875 C 27.140625 30.46875 29.253906 29.925781 31.117188 28.898438 C 31.589844 28.640625 31.761719 28.046875 31.503906 27.574219 Z M 31.503906 27.574219 "/>
<path style=" stroke:none;fill-rule:nonzero;fill:rgb(0%,0%,0%);fill-opacity:1;" d="M 17.089844 9.070312 C 16.695312 8.703125 16.078125 8.726562 15.710938 9.121094 L 15.6875 9.144531 C 15.320312 9.539062 15.34375 10.160156 15.742188 10.523438 C 15.929688 10.699219 16.167969 10.785156 16.40625 10.785156 C 16.667969 10.785156 16.929688 10.679688 17.121094 10.472656 L 17.140625 10.453125 C 17.507812 10.058594 17.484375 9.441406 17.089844 9.070312 Z M 17.089844 9.070312 "/>
</g>
</svg>
