<?xml version="1.0" encoding="UTF-8"?>
<svg xmlns="http://www.w3.org/2000/svg" xmlns:xlink="http://www.w3.org/1999/xlink" width="50pt" height="50pt" viewBox="0 0 50 50" version="1.1">
<g id="surface1">
<path style=" stroke:none;fill-rule:nonzero;fill:rgb(0%,0%,0%);fill-opacity:1;" d="M 45.71875 15.414062 L 43.613281 15.414062 L 43.613281 14.0625 L 44.925781 12.617188 C 45.609375 11.863281 45.984375 10.890625 45.984375 9.878906 L 45.984375 6.445312 C 45.984375 4.046875 44.03125 2.097656 41.632812 2.097656 L 39.632812 2.097656 C 37.234375 2.097656 35.28125 4.046875 35.28125 6.445312 L 35.28125 9.878906 C 35.28125 10.890625 35.65625 11.863281 36.339844 12.617188 L 37.652344 14.0625 L 37.652344 15.414062 L 35.546875 15.414062 C 33.5 15.414062 31.789062 16.859375 31.363281 18.777344 C 31.148438 18.75 30.929688 18.730469 30.707031 18.730469 L 28.242188 18.730469 L 28.242188 17.074219 L 29.746094 15.417969 C 30.5 14.589844 30.914062 13.519531 30.914062 12.398438 L 30.914062 8.535156 C 30.914062 5.886719 28.757812 3.730469 26.109375 3.730469 C 25.691406 3.730469 25.355469 4.066406 25.355469 4.480469 C 25.355469 4.898438 25.691406 5.234375 26.109375 5.234375 C 27.929688 5.234375 29.410156 6.714844 29.410156 8.535156 L 29.410156 12.398438 C 29.410156 13.144531 29.132812 13.855469 28.632812 14.40625 L 27.085938 16.113281 C 26.875 16.246094 26.738281 16.480469 26.738281 16.746094 L 26.738281 19.484375 C 26.738281 19.898438 27.074219 20.234375 27.492188 20.234375 L 30.707031 20.234375 C 32.484375 20.234375 33.933594 21.679688 33.933594 23.460938 L 33.933594 28.175781 L 16.027344 28.175781 L 16.027344 23.460938 C 16.027344 22.074219 16.90625 20.890625 18.136719 20.433594 C 18.195312 20.421875 18.25 20.402344 18.304688 20.378906 C 18.601562 20.285156 18.921875 20.234375 19.253906 20.234375 L 22.46875 20.234375 C 22.886719 20.234375 23.222656 19.898438 23.222656 19.484375 L 23.222656 16.746094 C 23.222656 16.480469 23.085938 16.246094 22.875 16.113281 L 21.328125 14.40625 C 20.828125 13.855469 20.550781 13.144531 20.550781 12.398438 L 20.550781 8.535156 C 20.550781 6.714844 22.03125 5.234375 23.851562 5.234375 C 24.269531 5.234375 24.605469 4.898438 24.605469 4.480469 C 24.605469 4.066406 24.269531 3.730469 23.851562 3.730469 C 21.203125 3.730469 19.046875 5.886719 19.046875 8.535156 L 19.046875 12.398438 C 19.046875 13.519531 19.460938 14.589844 20.214844 15.417969 L 21.71875 17.074219 L 21.71875 18.730469 L 19.253906 18.730469 C 19.042969 18.730469 18.835938 18.746094 18.632812 18.773438 C 18.210938 16.855469 16.496094 15.414062 14.453125 15.414062 L 12.347656 15.414062 L 12.347656 14.0625 L 13.660156 12.617188 C 14.34375 11.863281 14.71875 10.890625 14.71875 9.878906 L 14.71875 6.445312 C 14.71875 4.046875 12.765625 2.097656 10.367188 2.097656 L 8.367188 2.097656 C 5.96875 2.097656 4.015625 4.046875 4.015625 6.445312 L 4.015625 9.878906 C 4.015625 10.890625 4.390625 11.863281 5.074219 12.617188 L 6.386719 14.0625 L 6.386719 15.414062 L 4.28125 15.414062 C 1.921875 15.414062 0 17.335938 0 19.699219 L 0 24.554688 C 0 24.96875 0.335938 25.304688 0.75 25.304688 L 12.445312 25.304688 C 12.863281 25.304688 13.199219 24.96875 13.199219 24.554688 C 13.199219 24.136719 12.863281 23.800781 12.445312 23.800781 L 1.503906 23.800781 L 1.503906 19.699219 C 1.503906 18.164062 2.75 16.917969 4.28125 16.917969 L 7.140625 16.917969 C 7.554688 16.917969 7.890625 16.582031 7.890625 16.167969 L 7.890625 13.738281 C 7.890625 13.476562 7.757812 13.246094 7.554688 13.113281 L 6.1875 11.605469 C 5.757812 11.132812 5.519531 10.519531 5.519531 9.878906 L 5.519531 6.445312 C 5.519531 4.878906 6.796875 3.601562 8.367188 3.601562 L 10.367188 3.601562 C 11.9375 3.601562 13.214844 4.878906 13.214844 6.445312 L 13.214844 9.878906 C 13.214844 10.519531 12.980469 11.132812 12.546875 11.605469 L 11.179688 13.113281 C 10.976562 13.246094 10.84375 13.476562 10.84375 13.738281 L 10.84375 16.167969 C 10.84375 16.582031 11.179688 16.917969 11.597656 16.917969 L 14.453125 16.917969 C 15.816406 16.917969 16.953125 17.910156 17.1875 19.207031 C 15.613281 19.976562 14.523438 21.59375 14.523438 23.460938 L 14.523438 28.925781 C 14.523438 29.34375 14.863281 29.679688 15.277344 29.679688 L 34.683594 29.679688 C 35.101562 29.679688 35.4375 29.34375 35.4375 28.925781 L 35.4375 23.460938 C 35.4375 21.605469 34.363281 20 32.808594 19.226562 C 33.035156 17.917969 34.175781 16.917969 35.546875 16.917969 L 38.402344 16.917969 C 38.820312 16.917969 39.15625 16.582031 39.15625 16.167969 L 39.15625 13.738281 C 39.15625 13.476562 39.023438 13.246094 38.820312 13.109375 L 37.453125 11.605469 C 37.019531 11.132812 36.785156 10.519531 36.785156 9.878906 L 36.785156 6.445312 C 36.785156 4.878906 38.0625 3.601562 39.632812 3.601562 L 41.632812 3.601562 C 43.203125 3.601562 44.480469 4.878906 44.480469 6.445312 L 44.480469 9.878906 C 44.480469 10.519531 44.242188 11.132812 43.8125 11.605469 L 42.445312 13.113281 C 42.242188 13.246094 42.109375 13.476562 42.109375 13.738281 L 42.109375 16.167969 C 42.109375 16.582031 42.445312 16.917969 42.859375 16.917969 L 45.71875 16.917969 C 47.25 16.917969 48.496094 18.164062 48.496094 19.699219 L 48.496094 23.800781 L 37.683594 23.800781 C 37.265625 23.800781 36.929688 24.136719 36.929688 24.554688 C 36.929688 24.96875 37.265625 25.304688 37.683594 25.304688 L 49.25 25.304688 C 49.664062 25.304688 50 24.96875 50 24.554688 L 50 19.699219 C 50 17.335938 48.078125 15.414062 45.71875 15.414062 Z M 45.71875 15.414062 "/>
<path style=" stroke:none;fill-rule:nonzero;fill:rgb(0%,0%,0%);fill-opacity:1;" d="M 32.558594 39.207031 C 32.472656 38.9375 32.242188 38.742188 31.964844 38.695312 L 27.859375 38.023438 L 25.949219 34.324219 C 25.820312 34.074219 25.5625 33.917969 25.28125 33.917969 C 25 33.917969 24.742188 34.074219 24.613281 34.324219 L 22.703125 38.023438 L 18.597656 38.695312 C 18.320312 38.742188 18.09375 38.9375 18.003906 39.207031 C 17.917969 39.472656 17.988281 39.765625 18.1875 39.964844 L 21.113281 42.925781 L 20.484375 47.039062 C 20.441406 47.316406 20.558594 47.59375 20.785156 47.761719 C 20.914062 47.855469 21.070312 47.902344 21.226562 47.902344 C 21.34375 47.902344 21.457031 47.878906 21.5625 47.824219 L 25.28125 45.957031 L 29 47.824219 C 29.25 47.949219 29.550781 47.925781 29.78125 47.761719 C 30.007812 47.59375 30.125 47.316406 30.082031 47.039062 L 29.453125 42.925781 L 32.378906 39.964844 C 32.578125 39.765625 32.644531 39.472656 32.558594 39.207031 Z M 28.117188 42.136719 C 27.953125 42.304688 27.875 42.542969 27.910156 42.777344 L 28.375 45.828125 L 25.621094 44.441406 C 25.40625 44.335938 25.15625 44.335938 24.945312 44.441406 L 22.191406 45.828125 L 22.65625 42.777344 C 22.691406 42.542969 22.613281 42.304688 22.445312 42.136719 L 20.277344 39.945312 L 23.320312 39.445312 C 23.554688 39.40625 23.757812 39.257812 23.867188 39.046875 L 25.28125 36.308594 L 26.699219 39.046875 C 26.808594 39.257812 27.007812 39.40625 27.242188 39.445312 L 30.285156 39.945312 Z M 28.117188 42.136719 "/>
<path style=" stroke:none;fill-rule:nonzero;fill:rgb(0%,0%,0%);fill-opacity:1;" d="M 49.011719 33.679688 C 48.925781 33.410156 48.699219 33.214844 48.421875 33.167969 L 44.3125 32.496094 L 42.402344 28.796875 C 42.273438 28.546875 42.019531 28.390625 41.738281 28.390625 C 41.457031 28.390625 41.199219 28.546875 41.070312 28.796875 L 39.160156 32.496094 L 35.050781 33.167969 C 34.773438 33.214844 34.546875 33.410156 34.460938 33.679688 C 34.371094 33.945312 34.441406 34.238281 34.640625 34.441406 L 37.566406 37.398438 L 36.9375 41.511719 C 36.894531 41.789062 37.011719 42.066406 37.238281 42.234375 C 37.464844 42.398438 37.765625 42.421875 38.019531 42.296875 L 41.734375 40.429688 L 45.453125 42.296875 C 45.5625 42.351562 45.675781 42.375 45.792969 42.375 C 45.949219 42.375 46.101562 42.328125 46.234375 42.234375 C 46.460938 42.066406 46.578125 41.789062 46.535156 41.511719 L 45.90625 37.398438 L 48.832031 34.441406 C 49.03125 34.238281 49.101562 33.945312 49.011719 33.679688 Z M 44.574219 36.609375 C 44.40625 36.777344 44.328125 37.015625 44.363281 37.25 L 44.828125 40.300781 L 42.074219 38.914062 C 41.96875 38.863281 41.851562 38.835938 41.738281 38.835938 C 41.621094 38.835938 41.503906 38.863281 41.398438 38.914062 L 38.644531 40.300781 L 39.109375 37.25 C 39.144531 37.015625 39.066406 36.777344 38.898438 36.609375 L 36.730469 34.417969 L 39.773438 33.917969 C 40.007812 33.878906 40.210938 33.730469 40.320312 33.519531 L 41.734375 30.78125 L 43.152344 33.519531 C 43.261719 33.730469 43.464844 33.878906 43.699219 33.917969 L 46.742188 34.417969 Z M 44.574219 36.609375 "/>
<path style=" stroke:none;fill-rule:nonzero;fill:rgb(0%,0%,0%);fill-opacity:1;" d="M 16.105469 33.679688 C 16.019531 33.410156 15.789062 33.214844 15.511719 33.167969 L 11.40625 32.496094 L 9.496094 28.796875 C 9.367188 28.546875 9.109375 28.390625 8.828125 28.390625 C 8.546875 28.390625 8.289062 28.546875 8.160156 28.796875 L 6.25 32.496094 L 2.144531 33.167969 C 1.867188 33.214844 1.636719 33.410156 1.550781 33.679688 C 1.464844 33.945312 1.535156 34.238281 1.730469 34.441406 L 4.65625 37.398438 L 4.03125 41.511719 C 3.988281 41.789062 4.105469 42.066406 4.332031 42.234375 C 4.558594 42.398438 4.859375 42.421875 5.109375 42.296875 L 8.828125 40.429688 L 12.546875 42.296875 C 12.652344 42.351562 12.769531 42.375 12.882812 42.375 C 13.039062 42.375 13.195312 42.328125 13.324219 42.234375 C 13.554688 42.066406 13.667969 41.789062 13.625 41.511719 L 13 37.398438 L 15.925781 34.441406 C 16.121094 34.238281 16.191406 33.945312 16.105469 33.679688 Z M 11.664062 36.609375 C 11.496094 36.777344 11.421875 37.015625 11.457031 37.25 L 11.921875 40.300781 L 9.167969 38.914062 C 9.058594 38.863281 8.945312 38.835938 8.828125 38.835938 C 8.710938 38.835938 8.597656 38.863281 8.492188 38.914062 L 5.734375 40.300781 L 6.199219 37.25 C 6.238281 37.015625 6.160156 36.777344 5.992188 36.609375 L 3.824219 34.417969 L 6.867188 33.917969 C 7.101562 33.878906 7.304688 33.730469 7.414062 33.519531 L 8.828125 30.78125 L 10.242188 33.519531 C 10.351562 33.730469 10.554688 33.878906 10.789062 33.917969 L 13.832031 34.417969 Z M 11.664062 36.609375 "/>
</g>
</svg>
